# xmcd CD database file
#
# Track frame offsets:
#	182
#	10395
#	24037
#	34222
#	44820
#	54672
#	72627
#	89800
#	105892
#	119592
#	129210
#	139785
#	151520
#	172910
#	186295
#	200507
#	213060
#	226252
#	240082
#	250950
#
# Disc length: 3522 seconds
#
# Revision: 2
# Processed by: cddbd v1.4PL0 Copyright (c) Steve Scherf et al.
# Submitted via: CDex 1.40Release
#
DISCID=090dc014
DTITLE=John Mayall - London Blues 1964-1969 - Disc 1
DYEAR=1900
DGENRE=
TTITLE0=Crawling Up A Hill
TTITLE1=My Baby Is Sweeter
TTITLE2=Crocodile Walk
TTITLE3=Blues City Shakedown
TTITLE4=I'm Your Witchdoctor
TTITLE5=Telephone Blues
TTITLE6=Bernard Jenkins
TTITLE7=All Your Love
TTITLE8=Double Crossing Time
TTITLE9=Key To Love
TTITLE10=Parchman Farm
TTITLE11=Looking Back
TTITLE12=So Many Roads
TTITLE13=Sitting In The Rain
TTITLE14=A Hard Road
TTITLE15=Dust My Blues
TTITLE16=The Supernatural
TTITLE17=Another Kind Of Love
TTITLE18=Leaping Christine
TTITLE19=Burn Out Your Blind Eyes
EXTD=
EXTT0=
EXTT1=
EXTT2=
EXTT3=
EXTT4=
EXTT5=
EXTT6=
EXTT7=
EXTT8=
EXTT9=
EXTT10=
EXTT11=
EXTT12=
EXTT13=
EXTT14=
EXTT15=
EXTT16=
EXTT17=
EXTT18=
EXTT19=
PLAYORDER=
